<svg xmlns="http://www.w3.org/2000/svg" viewBox="0 0 483.42 483.41"><defs><style>.cls-1{font-size:52px;}.cls-1,.cls-2{font-family:Poppins-Regular, Poppins;}.cls-2{font-size:55px;}.cls-3{font-size:60px;font-family:MyriadPro-Regular, Myriad Pro;}</style></defs><g id="Capa_2" data-name="Capa 2"><g id="Capa_1-2" data-name="Capa 1"><text class="cls-1" transform="translate(115.52 95.94) rotate(-34.27)">M</text><text class="cls-1" transform="translate(151.1 71.71) rotate(-21.99)">O</text><text class="cls-1" transform="translate(187.53 57.05) rotate(-10.81)">D</text><text class="cls-1" transform="translate(222.38 50.71) rotate(-1.76)">E</text><text class="cls-1" transform="matrix(1, 0.09, -0.09, 1, 247.99, 49.98)">L</text><text class="cls-1" transform="matrix(0.97, 0.25, -0.25, 0.97, 269.19, 51.06)">O</text><text class="cls-1" transform="translate(307.4 61.63) rotate(22.14)"> </text><text class="cls-1" transform="translate(319.67 66.54) rotate(26.52)">1</text><text class="cls-1" transform="matrix(0.84, 0.54, -0.54, 0.84, 333.88, 73.19)">-</text><text class="cls-1" transform="translate(356.95 88.59) rotate(39.08)"> </text><text class="cls-1" transform="translate(367.27 96.94) rotate(43.03)"> </text><text class="cls-1" transform="translate(377.14 105.32) rotate(49.7)">6</text><text class="cls-1" transform="matrix(0.51, 0.86, -0.86, 0.51, 397.69, 129.39)">5</text><text class="cls-1" transform="translate(413.87 156.16) rotate(68.44)">0</text><text class="cls-1" transform="translate(425.48 185.23) rotate(77.85)">0</text><text class="cls-1" transform="translate(432.16 215.81) rotate(87.13)">$</text><text class="cls-1" transform="translate(433.67 246.86) rotate(95.75)">-</text><text class="cls-1" transform="matrix(-0.28, 0.96, -0.96, -0.28, 431.83, 274.02)">M</text><text class="cls-1" transform="matrix(-0.48, 0.88, -0.88, -0.48, 419.73, 315.33)">O</text><text class="cls-1" transform="matrix(-0.64, 0.77, -0.77, -0.64, 400.88, 349.79)">D</text><text class="cls-1" transform="matrix(-0.75, 0.66, -0.66, -0.75, 378.03, 376.86)">E</text><text class="cls-1" transform="matrix(-0.83, 0.56, -0.56, -0.83, 358.75, 393.71)">L</text><text class="cls-1" transform="translate(341.68 406.35) rotate(154.79)">O</text><text class="cls-1" transform="translate(305.46 422.47) rotate(162.67)"> </text><text class="cls-1" transform="matrix(-0.97, 0.22, -0.22, -0.97, 292.87, 426.48)">1</text><text class="cls-1" transform="translate(277.67 430.38) rotate(173.56)">-</text><text class="cls-1" transform="translate(250.01 433.09) rotate(179.07)"> </text><text class="cls-1" transform="matrix(-0.99, -0.11, 0.11, -0.99, 237.15, 433.86)">6</text><text class="cls-1" transform="translate(205.68 430.53) rotate(-164.36)">5</text><text class="cls-1" transform="translate(175.51 422.2) rotate(-154.95)">0</text><text class="cls-1" transform="translate(147.13 409.05) rotate(-145.6)">0</text><text class="cls-1" transform="translate(121.24 391.44) rotate(-136.34)">$</text><text class="cls-1" transform="translate(98.79 369.97) rotate(-127.67)">-</text><text class="cls-1" transform="translate(81.47 348.96) rotate(-117.18)">M</text><text class="cls-1" transform="matrix(-0.26, -0.97, 0.97, -0.26, 61.82, 310.64)">O</text><text class="cls-1" transform="translate(51.82 272.69) rotate(-93.73)">D</text><text class="cls-1" transform="matrix(0.09, -1, 1, 0.09, 49.8, 237.29)">E</text><text class="cls-1" transform="translate(52.2 211.79) rotate(-77.73)">L</text><text class="cls-1" transform="translate(55.88 190.92) rotate(-68.61)">O</text><text class="cls-2" transform="translate(71.11 154.32) rotate(-60.63)"> </text><text class="cls-2" transform="translate(77.9 142.08) rotate(-56.01)">1</text><text class="cls-2" transform="matrix(0.65, -0.76, 0.76, 0.65, 86.82, 128.07)">-</text><text class="cls-3" transform="translate(106.33 106.12) rotate(-43.07)"> </text></g></g></svg>