<svg xmlns="http://www.w3.org/2000/svg" viewBox="0 0 29.33 33.12"><defs><style>.cls-1{font-size:4.82px;font-family:Poppins-Bold, Poppins;font-weight:700;}</style></defs><g id="Capa_2" data-name="Capa 2"><g id="Capa_1-2" data-name="Capa 1"><path d="M19.22,12.29a2.26,2.26,0,0,0-.93.36,3.79,3.79,0,0,0-1.11,1.17.62.62,0,0,0-.12.27.23.23,0,0,0,0,.12.27.27,0,0,0,.14.14.18.18,0,0,0,.12,0,.21.21,0,0,0,.13,0,.33.33,0,0,0,.15-.16,4.84,4.84,0,0,1,.3-.44,2.19,2.19,0,0,1,1.37-.89,1.84,1.84,0,0,1,1.18.29,1.76,1.76,0,0,1,.82,1.22,1.85,1.85,0,0,1,0,.47,4.63,4.63,0,0,1-.44,1.44,2.42,2.42,0,0,0-.23.83,4.77,4.77,0,0,0,0,.7c0,.22,0,.47,0,.56a1.32,1.32,0,0,1-.39,1,1.8,1.8,0,0,1-.78.39,1.49,1.49,0,0,1-.47,0,.94.94,0,0,1-.35-.16.88.88,0,0,1-.31-.35.34.34,0,0,0-.22-.19.27.27,0,0,0-.25.08.26.26,0,0,0-.06.3,1.44,1.44,0,0,0,.3.44,1.38,1.38,0,0,0,.83.44A2,2,0,0,0,20.26,20a1.8,1.8,0,0,0,.87-1.46c0-.06,0-.24,0-.4a3.31,3.31,0,0,1,.26-1.69,4.5,4.5,0,0,0,.47-1.81,2,2,0,0,0-.07-.55,2.51,2.51,0,0,0-1.94-1.77A2.89,2.89,0,0,0,19.22,12.29Z"/><path d="M8.9,12.5a3.5,3.5,0,0,0-1.51.57,5.29,5.29,0,0,0-1.45,1.49c-.16.25-.2.32-.2.41s0,.19.25.46a5.55,5.55,0,0,0,.59.71,4.19,4.19,0,0,0,1.2.89,3.52,3.52,0,0,0,1.09.33,5,5,0,0,0,.77,0,3.56,3.56,0,0,0,1.82-.72l.12-.09a5.14,5.14,0,0,0,.63-.62,4.13,4.13,0,0,0,.63-1c0-.09,0-.17-.14-.38a4.3,4.3,0,0,0-2.41-2,2.77,2.77,0,0,0-.43-.09l-.16,0-.38,0Zm.67.56a3.43,3.43,0,0,1,.75.17,3.8,3.8,0,0,1,1.82,1.5l.08.14v0l0,0a3.25,3.25,0,0,1-.29.43A3.43,3.43,0,0,1,10,16.72a2.59,2.59,0,0,1-1.1.06l-.18,0-.09,0A3.31,3.31,0,0,1,7.24,16a5.73,5.73,0,0,1-.81-.9c-.08-.11-.08-.11,0-.16l0-.06.3-.4.07-.08a3.82,3.82,0,0,1,1.57-1.16A2.64,2.64,0,0,1,9.57,13.06Z"/><path d="M9.07,13.54a1.43,1.43,0,0,0-1.18,1.28,1.44,1.44,0,0,0,.19.82,1.4,1.4,0,1,0,2.31-1.58,1.46,1.46,0,0,0-.86-.52A2.36,2.36,0,0,0,9.07,13.54Zm.45.58a.88.88,0,0,1,.55.5.75.75,0,0,1,.06.31,1,1,0,0,1,0,.2.84.84,0,0,1-.53.58.76.76,0,0,1-.45,0A.84.84,0,0,1,8.45,15a1.62,1.62,0,0,1,0-.23v0a.86.86,0,0,1,.39-.55.71.71,0,0,1,.45-.11A.62.62,0,0,1,9.52,14.12Z"/><path d="M14.6,13.25a.34.34,0,0,0-.19.16.2.2,0,0,0,0,.11c0,.08,0,.05.17.61l.14.45c0,.09.07.23.1.31l.08.27c0,.15.27.87.44,1.38l.13.44.09.28.15.47c0,.13.09.3.12.38s.08.25.11.37c.11.34.29.9.4,1.27.22.69.22.68.22.86s-.06.37-.18.43-.12,0-.46,0h-.34v-.62l0,0a.27.27,0,0,0-.25-.17.13.13,0,0,0-.11,0,.29.29,0,0,0-.16.15l0,.05v.61H14v-.62l0-.05a.29.29,0,0,0-.37-.14.32.32,0,0,0-.14.14s0,.05,0,.36,0,.31,0,.31h-.69c-.2,0-.27-.18-.26-.49a.84.84,0,0,1,.07-.37c0-.05.08-.22.12-.37.12-.33.23-.67.44-1.33.09-.28.21-.64.27-.81l.11-.35a.27.27,0,0,0-.08-.27.27.27,0,0,0-.39,0,.9.9,0,0,0-.15.35l-.42,1.28c-.07.23-.18.55-.23.72-.31.92-.3.9-.31,1.15A1.44,1.44,0,0,0,12,21a.88.88,0,0,0,.32.49.92.92,0,0,0,.38.15c.11,0,3.57,0,3.68,0a.84.84,0,0,0,.49-.24,1.19,1.19,0,0,0,.25-1,3,3,0,0,0-.19-.69l-.07-.22-.07-.23c0-.1-.12-.36-.19-.59L16.35,18a4.05,4.05,0,0,1-.13-.42l-.09-.29c0-.1-.11-.33-.17-.52-.11-.36-.13-.43-.33-1-.06-.21-.14-.44-.16-.52s-.1-.33-.18-.57-.19-.59-.24-.78l-.13-.39a.26.26,0,0,0-.24-.16Z"/><path d="M19.12,14.11c-.45,0-.8.37-1.2,1.13l-.08.13a.41.41,0,0,0-.06.2.31.31,0,0,0,.17.25.23.23,0,0,0,.12,0c.14,0,.19-.06.3-.25a2.89,2.89,0,0,1,.48-.74.53.53,0,0,1,.34-.17.43.43,0,0,1,.24.05.32.32,0,0,1,.13.1.58.58,0,0,1,.14.52.56.56,0,0,1-.09.19,1.34,1.34,0,0,1-.3.31,2.2,2.2,0,0,0-.38.4.72.72,0,0,0-.07.8l.18.28c.14.19.16.25.16.36a.48.48,0,0,1-.08.22c-.07.09-.17.08-.54-.06l-.25-.09a.3.3,0,0,0-.29.17.33.33,0,0,0,0,.22.44.44,0,0,0,.13.14l.15.06a1.69,1.69,0,0,0,.74.18.66.66,0,0,0,.38-.14.85.85,0,0,0,.31-.49.75.75,0,0,0,0-.23.91.91,0,0,0-.11-.45c0-.07-.06-.09-.2-.3a.46.46,0,0,1-.11-.22.49.49,0,0,1,.09-.18,1.7,1.7,0,0,1,.27-.26,1.75,1.75,0,0,0,.45-.51,1.08,1.08,0,0,0,.12-.53,1,1,0,0,0-.1-.5A1.07,1.07,0,0,0,19.12,14.11Z"/><path d="M8.16,18.74a2.56,2.56,0,0,0-1.31.52,4.49,4.49,0,0,0-.43.44,2.48,2.48,0,0,0-.5,1.23c0,.05,0,.12,0,.14s0,4,0,4.17,0,.16,0,.21a.26.26,0,0,0,.14.13.33.33,0,0,0,.22,0,.38.38,0,0,0,.14-.14l0-.05V23.21c0-1.2,0-2.2,0-2.21a.65.65,0,0,1,0-.11,1.81,1.81,0,0,1,.37-.84,2.38,2.38,0,0,1,.31-.33A2,2,0,0,1,8,19.35a1.46,1.46,0,0,1,.46,0,1.69,1.69,0,0,1,.8.19,1.9,1.9,0,0,1,1,1.25,12.14,12.14,0,0,1,0,2.41c0,1.15,0,2.13,0,2.17a.33.33,0,0,0,.08.2.29.29,0,0,0,.38,0,.3.3,0,0,0,.09-.22c0-.13,0-4,0-4.22a2.32,2.32,0,0,0-.06-.47,2.54,2.54,0,0,0-1-1.49,2.46,2.46,0,0,0-1.1-.39Z"/><path d="M8.27,20.11a1.37,1.37,0,0,0-.28.05,1.5,1.5,0,0,0-.78.66A2,2,0,0,0,7,22.22a1.66,1.66,0,0,0,.86,1.17,1.22,1.22,0,0,0,.58.11.32.32,0,0,0,.2-.16.25.25,0,0,0,0-.12.13.13,0,0,0,0-.11.27.27,0,0,0-.27-.17.71.71,0,0,1-.23-.05,1,1,0,0,1-.56-.73,1.34,1.34,0,0,1,.28-1.24.59.59,0,0,1,.24-.18.56.56,0,0,1,.32-.07.74.74,0,0,1,.18,0,.91.91,0,0,1,.47.4,1.51,1.51,0,0,1,.18.65.7.7,0,0,0,0,.13.27.27,0,0,0,.15.18.3.3,0,0,0,.21,0,.29.29,0,0,0,.16-.15c0-.05,0-.05,0-.19a1.77,1.77,0,0,0-.64-1.35A1.24,1.24,0,0,0,8.27,20.11Z"/><path d="M8.3,21.18a.32.32,0,0,0-.18.21.31.31,0,0,0,.08.27.44.44,0,0,1,.05.52.41.41,0,0,0-.05.18.29.29,0,0,0,.44.23.77.77,0,0,0,.21-.41,1.09,1.09,0,0,0,0-.44,1.07,1.07,0,0,0-.28-.51A.3.3,0,0,0,8.3,21.18Z"/><path d="M15.41,22.83a2.09,2.09,0,0,0-.53.11,3.85,3.85,0,0,0-1.25.79,5.9,5.9,0,0,0-.71.71.26.26,0,0,0,0,.27,2.9,2.9,0,0,0,.64.73,4.65,4.65,0,0,0,1.26.76,6,6,0,0,0,2.2.43,6.23,6.23,0,0,0,2.08-.3,4.91,4.91,0,0,0,1.33-.68,2.79,2.79,0,0,0,.92-1c0-.12-.07-.24-.42-.59a4.32,4.32,0,0,0-1.74-1.15,1.89,1.89,0,0,0-.58-.08,1.79,1.79,0,0,0-1.23.5,1.5,1.5,0,0,0-.21.26s0,.06-.05.06l0-.07a1.69,1.69,0,0,0-.77-.62A2.17,2.17,0,0,0,15.41,22.83Zm.26.57a1.11,1.11,0,0,1,1,.62,2.66,2.66,0,0,1,.11.28v0H13.81l0,0,.07-.07a6.41,6.41,0,0,1,.56-.44,2,2,0,0,1,1-.4A.53.53,0,0,1,15.67,23.4Zm3.09,0a3,3,0,0,1,1.53.86l.05,0a0,0,0,0,1,0,0H17.42a1.57,1.57,0,0,1,.09-.28,1.1,1.1,0,0,1,.51-.51,1.19,1.19,0,0,1,.45-.13A.71.71,0,0,1,18.76,23.4ZM20.36,25a3.14,3.14,0,0,1-.38.29,5,5,0,0,1-2.65.82,5.8,5.8,0,0,1-.59,0,5.74,5.74,0,0,1-1.16-.19,5.27,5.27,0,0,1-.6-.2,3.73,3.73,0,0,1-.49-.24c-.1-.06-.33-.2-.42-.27a2,2,0,0,1-.3-.26h6.65Z"/><path d="M9.51,22.86a.29.29,0,0,0-.15.09.33.33,0,0,0-.08.18,1.08,1.08,0,0,1-.08.26,1.17,1.17,0,0,1-.74.56A1.14,1.14,0,0,1,8,24a.89.89,0,0,1-.49-.25c-.12-.12-.21-.15-.32-.12a.31.31,0,0,0-.18.16.2.2,0,0,0,0,.11A.21.21,0,0,0,7,24a1.19,1.19,0,0,0,.32.31,1.63,1.63,0,0,0,1.59.05,1.58,1.58,0,0,0,.67-.58,1.35,1.35,0,0,0,.23-.65.18.18,0,0,0,0-.13.32.32,0,0,0-.14-.14A.43.43,0,0,0,9.51,22.86Z"/><text class="cls-1" transform="translate(3.74 11.67) rotate(-43.62)">3</text><text class="cls-1" transform="translate(5.68 9.75) rotate(-30.34)">D</text><text class="cls-1" transform="translate(8.64 8.12) rotate(-20.87)"> </text><text class="cls-1" transform="translate(9.42 7.64) rotate(-9.64)">M</text><text class="cls-1" transform="translate(13.57 6.94) rotate(7.4)">O</text><text class="cls-1" transform="translate(17.14 7.4) rotate(22.57)">D</text><text class="cls-1" transform="matrix(0.82, 0.57, -0.57, 0.82, 20.19, 8.7)">E</text><text class="cls-1" transform="translate(22.2 10.12) rotate(45.17)">L</text><text class="cls-1" transform="matrix(0.56, 0.83, -0.83, 0.56, 23.76, 11.62)">S</text></g></g></svg>